# xmcd
#
# Track frame offsets:
#	150
#	25252
#	58965
#
# Disc length: 1419 seconds
# Revision: 1
# Processed by: cddbd v1.5.2PL0 Copyright (c) Steve Scherf et al.
# Submitted via: dBpowerAMP V12.0
#
DISCID=23058903
DTITLE=Lester Levenson - Lester on Pain - What Is It?
DYEAR=2006
DGENRE=Home Study
TTITLE0=Lester on Pain - What Is It pt 1
TTITLE1=Lester on Pain - What Is It pt 2
TTITLE2=Lester on Pain - What Is It pt 3
EXTD=
EXTT0=
EXTT1=
EXTT2=
PLAYORDER=
